solid OpenSCAD_Model
  facet normal -1 0 0
    outer loop
      vertex 0 0 0
      vertex 0 20 40
      vertex 0 20 0
    endloop
  endfacet
  facet normal -1 -0 0
    outer loop
      vertex 0 20 40
      vertex 0 0 0
      vertex 0 0 40
    endloop
  endfacet
  facet normal 1 -0 0
    outer loop
      vertex 20 0 40
      vertex 20 20 0
      vertex 20 20 40
    endloop
  endfacet
  facet normal 1 0 0
    outer loop
      vertex 20 20 0
      vertex 20 0 40
      vertex 20 0 0
    endloop
  endfacet
  facet normal 0 1 -0
    outer loop
      vertex 20 20 0
      vertex 0 20 40
      vertex 20 20 40
    endloop
  endfacet
  facet normal 0 1 0
    outer loop
      vertex 0 20 40
      vertex 20 20 0
      vertex 0 20 0
    endloop
  endfacet
  facet normal 0 0 -1
    outer loop
      vertex 7.42705 13.2366 0
      vertex 12.5729 6.76336 0
      vertex 7.42705 6.76336 0
    endloop
  endfacet
  facet normal 0 0 -1
    outer loop
      vertex 12.5729 6.76336 0
      vertex 7.42705 13.2366 0
      vertex 8 15 0
    endloop
  endfacet
  facet normal 0 0 -1
    outer loop
      vertex 5.92705 7.85317 0
      vertex 7.42705 13.2366 0
      vertex 7.42705 6.76336 0
    endloop
  endfacet
  facet normal 0 0 -1
    outer loop
      vertex 5.92705 7.85317 0
      vertex 5.92705 12.1468 0
      vertex 7.42705 13.2366 0
    endloop
  endfacet
  facet normal 0 0 -1
    outer loop
      vertex 4.07295 7.85317 0
      vertex 5.92705 12.1468 0
      vertex 5.92705 7.85317 0
    endloop
  endfacet
  facet normal 0 0 -1
    outer loop
      vertex 4.07295 7.85317 0
      vertex 4.07295 12.1468 0
      vertex 5.92705 12.1468 0
    endloop
  endfacet
  facet normal 0 0 -1
    outer loop
      vertex 2.57295 6.76336 0
      vertex 4.07295 12.1468 0
      vertex 4.07295 7.85317 0
    endloop
  endfacet
  facet normal 0 0 -1
    outer loop
      vertex 2.57295 6.76336 0
      vertex 2.57295 13.2366 0
      vertex 4.07295 12.1468 0
    endloop
  endfacet
  facet normal 0 0 -1
    outer loop
      vertex 2 5 0
      vertex 2.57295 13.2366 0
      vertex 2.57295 6.76336 0
    endloop
  endfacet
  facet normal -0 0 -1
    outer loop
      vertex 2.57295 13.2366 0
      vertex 2 5 0
      vertex 2 15 0
    endloop
  endfacet
  facet normal 0 0 -1
    outer loop
      vertex 20 0 0
      vertex 18 5 0
      vertex 20 20 0
    endloop
  endfacet
  facet normal 0 0 -1
    outer loop
      vertex 20 0 0
      vertex 17.4271 3.23664 0
      vertex 18 5 0
    endloop
  endfacet
  facet normal 0 0 -1
    outer loop
      vertex 20 0 0
      vertex 15.9271 2.14683 0
      vertex 17.4271 3.23664 0
    endloop
  endfacet
  facet normal 0 0 -1
    outer loop
      vertex 20 0 0
      vertex 14.0729 2.14683 0
      vertex 15.9271 2.14683 0
    endloop
  endfacet
  facet normal 0 0 -1
    outer loop
      vertex 12.5729 3.23664 0
      vertex 8 5 0
      vertex 12 5 0
    endloop
  endfacet
  facet normal 0 0 -1
    outer loop
      vertex 7.42705 3.23664 0
      vertex 12.5729 3.23664 0
      vertex 14.0729 2.14683 0
    endloop
  endfacet
  facet normal 0 0 -1
    outer loop
      vertex 12.5729 3.23664 0
      vertex 7.42705 3.23664 0
      vertex 8 5 0
    endloop
  endfacet
  facet normal 0 0 -1
    outer loop
      vertex 5.92705 2.14683 0
      vertex 14.0729 2.14683 0
      vertex 20 0 0
    endloop
  endfacet
  facet normal 0 0 -1
    outer loop
      vertex 14.0729 2.14683 0
      vertex 5.92705 2.14683 0
      vertex 7.42705 3.23664 0
    endloop
  endfacet
  facet normal 0 0 -1
    outer loop
      vertex 0 0 0
      vertex 5.92705 2.14683 0
      vertex 20 0 0
    endloop
  endfacet
  facet normal -0 0 -1
    outer loop
      vertex 2 5 0
      vertex 0 0 0
      vertex 2 15 0
    endloop
  endfacet
  facet normal -0 0 -1
    outer loop
      vertex 2.57295 3.23664 0
      vertex 0 0 0
      vertex 2 5 0
    endloop
  endfacet
  facet normal -0 0 -1
    outer loop
      vertex 4.07295 2.14683 0
      vertex 0 0 0
      vertex 2.57295 3.23664 0
    endloop
  endfacet
  facet normal -0 0 -1
    outer loop
      vertex 5.92705 2.14683 0
      vertex 0 0 0
      vertex 4.07295 2.14683 0
    endloop
  endfacet
  facet normal 0 0 -1
    outer loop
      vertex 17.4271 6.76336 0
      vertex 20 20 0
      vertex 18 5 0
    endloop
  endfacet
  facet normal 0 0 -1
    outer loop
      vertex 15.9271 7.85317 0
      vertex 20 20 0
      vertex 17.4271 6.76336 0
    endloop
  endfacet
  facet normal 0 0 -1
    outer loop
      vertex 8 15 0
      vertex 15.9271 7.85317 0
      vertex 14.0729 7.85317 0
    endloop
  endfacet
  facet normal 0 0 -1
    outer loop
      vertex 8 15 0
      vertex 14.0729 7.85317 0
      vertex 12.5729 6.76336 0
    endloop
  endfacet
  facet normal 0 0 -1
    outer loop
      vertex 8 5 0
      vertex 12.5729 6.76336 0
      vertex 12 5 0
    endloop
  endfacet
  facet normal 0 0 -1
    outer loop
      vertex 7.42705 6.76336 0
      vertex 12.5729 6.76336 0
      vertex 8 5 0
    endloop
  endfacet
  facet normal 0 0 -1
    outer loop
      vertex 15.9271 7.85317 0
      vertex 8 15 0
      vertex 20 20 0
    endloop
  endfacet
  facet normal 0 0 -1
    outer loop
      vertex 7.42705 16.7634 0
      vertex 20 20 0
      vertex 8 15 0
    endloop
  endfacet
  facet normal 0 0 -1
    outer loop
      vertex 5.92705 17.8532 0
      vertex 20 20 0
      vertex 7.42705 16.7634 0
    endloop
  endfacet
  facet normal 0 0 -1
    outer loop
      vertex 0 20 0
      vertex 5.92705 17.8532 0
      vertex 4.07295 17.8532 0
    endloop
  endfacet
  facet normal 0 0 -1
    outer loop
      vertex 5.92705 17.8532 0
      vertex 0 20 0
      vertex 20 20 0
    endloop
  endfacet
  facet normal 0 0 -1
    outer loop
      vertex 2.57295 16.7634 0
      vertex 0 20 0
      vertex 4.07295 17.8532 0
    endloop
  endfacet
  facet normal 0 0 -1
    outer loop
      vertex 2 15 0
      vertex 0 20 0
      vertex 2.57295 16.7634 0
    endloop
  endfacet
  facet normal 0 0 -1
    outer loop
      vertex 0 20 0
      vertex 2 15 0
      vertex 0 0 0
    endloop
  endfacet
  facet normal 0 -1 0
    outer loop
      vertex 0 0 0
      vertex 20 0 40
      vertex 0 0 40
    endloop
  endfacet
  facet normal 0 -1 -0
    outer loop
      vertex 20 0 40
      vertex 0 0 0
      vertex 20 0 0
    endloop
  endfacet
  facet normal -0.951056 -0.309017 0
    outer loop
      vertex 8 5 0
      vertex 7.42705 6.76336 40
      vertex 7.42705 6.76336 0
    endloop
  endfacet
  facet normal -0.951056 -0.309017 0
    outer loop
      vertex 7.42705 6.76336 40
      vertex 8 5 0
      vertex 8 5 40
    endloop
  endfacet
  facet normal 0 -1 0
    outer loop
      vertex 4.07295 7.85317 0
      vertex 5.92705 7.85317 40
      vertex 4.07295 7.85317 40
    endloop
  endfacet
  facet normal 0 -1 -0
    outer loop
      vertex 5.92705 7.85317 40
      vertex 4.07295 7.85317 0
      vertex 5.92705 7.85317 0
    endloop
  endfacet
  facet normal -0.587785 -0.809017 0
    outer loop
      vertex 5.92705 7.85317 0
      vertex 7.42705 6.76336 40
      vertex 5.92705 7.85317 40
    endloop
  endfacet
  facet normal -0.587785 -0.809017 -0
    outer loop
      vertex 7.42705 6.76336 40
      vertex 5.92705 7.85317 0
      vertex 7.42705 6.76336 0
    endloop
  endfacet
  facet normal 0.951057 0.309017 0
    outer loop
      vertex 2.57295 3.23664 40
      vertex 2 5 0
      vertex 2 5 40
    endloop
  endfacet
  facet normal 0.951057 0.309017 0
    outer loop
      vertex 2 5 0
      vertex 2.57295 3.23664 40
      vertex 2.57295 3.23664 0
    endloop
  endfacet
  facet normal 0.587785 -0.809017 0
    outer loop
      vertex 2.57295 6.76336 0
      vertex 4.07295 7.85317 40
      vertex 2.57295 6.76336 40
    endloop
  endfacet
  facet normal 0.587785 -0.809017 0
    outer loop
      vertex 4.07295 7.85317 40
      vertex 2.57295 6.76336 0
      vertex 4.07295 7.85317 0
    endloop
  endfacet
  facet normal -0.951056 0.309017 0
    outer loop
      vertex 7.42705 3.23664 0
      vertex 8 5 40
      vertex 8 5 0
    endloop
  endfacet
  facet normal -0.951056 0.309017 0
    outer loop
      vertex 8 5 40
      vertex 7.42705 3.23664 0
      vertex 7.42705 3.23664 40
    endloop
  endfacet
  facet normal -0.587785 0.809017 0
    outer loop
      vertex 7.42705 3.23664 0
      vertex 5.92705 2.14683 40
      vertex 7.42705 3.23664 40
    endloop
  endfacet
  facet normal -0.587785 0.809017 0
    outer loop
      vertex 5.92705 2.14683 40
      vertex 7.42705 3.23664 0
      vertex 5.92705 2.14683 0
    endloop
  endfacet
  facet normal 0.587785 0.809017 -0
    outer loop
      vertex 4.07295 2.14683 0
      vertex 2.57295 3.23664 40
      vertex 4.07295 2.14683 40
    endloop
  endfacet
  facet normal 0.587785 0.809017 0
    outer loop
      vertex 2.57295 3.23664 40
      vertex 4.07295 2.14683 0
      vertex 2.57295 3.23664 0
    endloop
  endfacet
  facet normal 0 1 -0
    outer loop
      vertex 5.92705 2.14683 0
      vertex 4.07295 2.14683 40
      vertex 5.92705 2.14683 40
    endloop
  endfacet
  facet normal 0 1 0
    outer loop
      vertex 4.07295 2.14683 40
      vertex 5.92705 2.14683 0
      vertex 4.07295 2.14683 0
    endloop
  endfacet
  facet normal 0.951057 -0.309017 0
    outer loop
      vertex 2 5 40
      vertex 2.57295 6.76336 0
      vertex 2.57295 6.76336 40
    endloop
  endfacet
  facet normal 0.951057 -0.309017 0
    outer loop
      vertex 2.57295 6.76336 0
      vertex 2 5 40
      vertex 2 5 0
    endloop
  endfacet
  facet normal -0.951057 -0.309017 0
    outer loop
      vertex 18 5 0
      vertex 17.4271 6.76336 40
      vertex 17.4271 6.76336 0
    endloop
  endfacet
  facet normal -0.951057 -0.309017 0
    outer loop
      vertex 17.4271 6.76336 40
      vertex 18 5 0
      vertex 18 5 40
    endloop
  endfacet
  facet normal 0 -1 0
    outer loop
      vertex 14.0729 7.85317 0
      vertex 15.9271 7.85317 40
      vertex 14.0729 7.85317 40
    endloop
  endfacet
  facet normal 0 -1 -0
    outer loop
      vertex 15.9271 7.85317 40
      vertex 14.0729 7.85317 0
      vertex 15.9271 7.85317 0
    endloop
  endfacet
  facet normal -0.587785 -0.809017 0
    outer loop
      vertex 15.9271 7.85317 0
      vertex 17.4271 6.76336 40
      vertex 15.9271 7.85317 40
    endloop
  endfacet
  facet normal -0.587785 -0.809017 -0
    outer loop
      vertex 17.4271 6.76336 40
      vertex 15.9271 7.85317 0
      vertex 17.4271 6.76336 0
    endloop
  endfacet
  facet normal 0.951057 0.309017 0
    outer loop
      vertex 12.5729 3.23664 40
      vertex 12 5 0
      vertex 12 5 40
    endloop
  endfacet
  facet normal 0.951057 0.309017 0
    outer loop
      vertex 12 5 0
      vertex 12.5729 3.23664 40
      vertex 12.5729 3.23664 0
    endloop
  endfacet
  facet normal 0.587785 -0.809017 0
    outer loop
      vertex 12.5729 6.76336 0
      vertex 14.0729 7.85317 40
      vertex 12.5729 6.76336 40
    endloop
  endfacet
  facet normal 0.587785 -0.809017 0
    outer loop
      vertex 14.0729 7.85317 40
      vertex 12.5729 6.76336 0
      vertex 14.0729 7.85317 0
    endloop
  endfacet
  facet normal -0.951057 0.309017 0
    outer loop
      vertex 17.4271 3.23664 0
      vertex 18 5 40
      vertex 18 5 0
    endloop
  endfacet
  facet normal -0.951057 0.309017 0
    outer loop
      vertex 18 5 40
      vertex 17.4271 3.23664 0
      vertex 17.4271 3.23664 40
    endloop
  endfacet
  facet normal -0.587785 0.809017 0
    outer loop
      vertex 17.4271 3.23664 0
      vertex 15.9271 2.14683 40
      vertex 17.4271 3.23664 40
    endloop
  endfacet
  facet normal -0.587785 0.809017 0
    outer loop
      vertex 15.9271 2.14683 40
      vertex 17.4271 3.23664 0
      vertex 15.9271 2.14683 0
    endloop
  endfacet
  facet normal 0.587785 0.809017 -0
    outer loop
      vertex 14.0729 2.14683 0
      vertex 12.5729 3.23664 40
      vertex 14.0729 2.14683 40
    endloop
  endfacet
  facet normal 0.587785 0.809017 0
    outer loop
      vertex 12.5729 3.23664 40
      vertex 14.0729 2.14683 0
      vertex 12.5729 3.23664 0
    endloop
  endfacet
  facet normal 0 1 -0
    outer loop
      vertex 15.9271 2.14683 0
      vertex 14.0729 2.14683 40
      vertex 15.9271 2.14683 40
    endloop
  endfacet
  facet normal 0 1 0
    outer loop
      vertex 14.0729 2.14683 40
      vertex 15.9271 2.14683 0
      vertex 14.0729 2.14683 0
    endloop
  endfacet
  facet normal 0.951057 -0.309017 0
    outer loop
      vertex 12 5 40
      vertex 12.5729 6.76336 0
      vertex 12.5729 6.76336 40
    endloop
  endfacet
  facet normal 0.951057 -0.309017 0
    outer loop
      vertex 12.5729 6.76336 0
      vertex 12 5 40
      vertex 12 5 0
    endloop
  endfacet
  facet normal -0.951056 -0.309017 0
    outer loop
      vertex 8 15 0
      vertex 7.42705 16.7634 40
      vertex 7.42705 16.7634 0
    endloop
  endfacet
  facet normal -0.951056 -0.309017 0
    outer loop
      vertex 7.42705 16.7634 40
      vertex 8 15 0
      vertex 8 15 40
    endloop
  endfacet
  facet normal 0 -1 0
    outer loop
      vertex 4.07295 17.8532 0
      vertex 5.92705 17.8532 40
      vertex 4.07295 17.8532 40
    endloop
  endfacet
  facet normal 0 -1 -0
    outer loop
      vertex 5.92705 17.8532 40
      vertex 4.07295 17.8532 0
      vertex 5.92705 17.8532 0
    endloop
  endfacet
  facet normal -0.587785 -0.809017 0
    outer loop
      vertex 5.92705 17.8532 0
      vertex 7.42705 16.7634 40
      vertex 5.92705 17.8532 40
    endloop
  endfacet
  facet normal -0.587785 -0.809017 -0
    outer loop
      vertex 7.42705 16.7634 40
      vertex 5.92705 17.8532 0
      vertex 7.42705 16.7634 0
    endloop
  endfacet
  facet normal 0.951057 0.309017 0
    outer loop
      vertex 2.57295 13.2366 40
      vertex 2 15 0
      vertex 2 15 40
    endloop
  endfacet
  facet normal 0.951057 0.309017 0
    outer loop
      vertex 2 15 0
      vertex 2.57295 13.2366 40
      vertex 2.57295 13.2366 0
    endloop
  endfacet
  facet normal 0.587785 -0.809017 0
    outer loop
      vertex 2.57295 16.7634 0
      vertex 4.07295 17.8532 40
      vertex 2.57295 16.7634 40
    endloop
  endfacet
  facet normal 0.587785 -0.809017 0
    outer loop
      vertex 4.07295 17.8532 40
      vertex 2.57295 16.7634 0
      vertex 4.07295 17.8532 0
    endloop
  endfacet
  facet normal -0.951056 0.309017 0
    outer loop
      vertex 7.42705 13.2366 0
      vertex 8 15 40
      vertex 8 15 0
    endloop
  endfacet
  facet normal -0.951056 0.309017 0
    outer loop
      vertex 8 15 40
      vertex 7.42705 13.2366 0
      vertex 7.42705 13.2366 40
    endloop
  endfacet
  facet normal -0.587785 0.809017 0
    outer loop
      vertex 7.42705 13.2366 0
      vertex 5.92705 12.1468 40
      vertex 7.42705 13.2366 40
    endloop
  endfacet
  facet normal -0.587785 0.809017 0
    outer loop
      vertex 5.92705 12.1468 40
      vertex 7.42705 13.2366 0
      vertex 5.92705 12.1468 0
    endloop
  endfacet
  facet normal 0.587785 0.809017 -0
    outer loop
      vertex 4.07295 12.1468 0
      vertex 2.57295 13.2366 40
      vertex 4.07295 12.1468 40
    endloop
  endfacet
  facet normal 0.587785 0.809017 0
    outer loop
      vertex 2.57295 13.2366 40
      vertex 4.07295 12.1468 0
      vertex 2.57295 13.2366 0
    endloop
  endfacet
  facet normal 0 1 -0
    outer loop
      vertex 5.92705 12.1468 0
      vertex 4.07295 12.1468 40
      vertex 5.92705 12.1468 40
    endloop
  endfacet
  facet normal 0 1 0
    outer loop
      vertex 4.07295 12.1468 40
      vertex 5.92705 12.1468 0
      vertex 4.07295 12.1468 0
    endloop
  endfacet
  facet normal 0.951057 -0.309017 0
    outer loop
      vertex 2 15 40
      vertex 2.57295 16.7634 0
      vertex 2.57295 16.7634 40
    endloop
  endfacet
  facet normal 0.951057 -0.309017 0
    outer loop
      vertex 2.57295 16.7634 0
      vertex 2 15 40
      vertex 2 15 0
    endloop
  endfacet
  facet normal 0 0 1
    outer loop
      vertex 7.42705 6.76336 40
      vertex 12.5729 6.76336 40
      vertex 7.42705 13.2366 40
    endloop
  endfacet
  facet normal 0 0 1
    outer loop
      vertex 12.5729 6.76336 40
      vertex 7.42705 6.76336 40
      vertex 8 5 40
    endloop
  endfacet
  facet normal -0 0 1
    outer loop
      vertex 5.92705 12.1468 40
      vertex 7.42705 6.76336 40
      vertex 7.42705 13.2366 40
    endloop
  endfacet
  facet normal 0 0 1
    outer loop
      vertex 5.92705 12.1468 40
      vertex 5.92705 7.85317 40
      vertex 7.42705 6.76336 40
    endloop
  endfacet
  facet normal -0 0 1
    outer loop
      vertex 4.07295 12.1468 40
      vertex 5.92705 7.85317 40
      vertex 5.92705 12.1468 40
    endloop
  endfacet
  facet normal 0 0 1
    outer loop
      vertex 4.07295 12.1468 40
      vertex 4.07295 7.85317 40
      vertex 5.92705 7.85317 40
    endloop
  endfacet
  facet normal 0 0 1
    outer loop
      vertex 2.57295 13.2366 40
      vertex 4.07295 7.85317 40
      vertex 4.07295 12.1468 40
    endloop
  endfacet
  facet normal 0 0 1
    outer loop
      vertex 2.57295 13.2366 40
      vertex 2.57295 6.76336 40
      vertex 4.07295 7.85317 40
    endloop
  endfacet
  facet normal 0 0 1
    outer loop
      vertex 2 15 40
      vertex 2.57295 6.76336 40
      vertex 2.57295 13.2366 40
    endloop
  endfacet
  facet normal 0 0 1
    outer loop
      vertex 2.57295 6.76336 40
      vertex 2 15 40
      vertex 2 5 40
    endloop
  endfacet
  facet normal 0 0 1
    outer loop
      vertex 20 20 40
      vertex 18 5 40
      vertex 20 0 40
    endloop
  endfacet
  facet normal 0 0 1
    outer loop
      vertex 20 20 40
      vertex 17.4271 6.76336 40
      vertex 18 5 40
    endloop
  endfacet
  facet normal 0 0 1
    outer loop
      vertex 20 20 40
      vertex 15.9271 7.85317 40
      vertex 17.4271 6.76336 40
    endloop
  endfacet
  facet normal -0 0 1
    outer loop
      vertex 8 15 40
      vertex 15.9271 7.85317 40
      vertex 20 20 40
    endloop
  endfacet
  facet normal 0 0 1
    outer loop
      vertex 15.9271 7.85317 40
      vertex 8 15 40
      vertex 14.0729 7.85317 40
    endloop
  endfacet
  facet normal 0 0 1
    outer loop
      vertex 14.0729 7.85317 40
      vertex 7.42705 13.2366 40
      vertex 12.5729 6.76336 40
    endloop
  endfacet
  facet normal -0 0 1
    outer loop
      vertex 7.42705 13.2366 40
      vertex 14.0729 7.85317 40
      vertex 8 15 40
    endloop
  endfacet
  facet normal 0 0 1
    outer loop
      vertex 20 20 40
      vertex 7.42705 16.7634 40
      vertex 8 15 40
    endloop
  endfacet
  facet normal 0 0 1
    outer loop
      vertex 20 20 40
      vertex 5.92705 17.8532 40
      vertex 7.42705 16.7634 40
    endloop
  endfacet
  facet normal -0 0 1
    outer loop
      vertex 0 20 40
      vertex 5.92705 17.8532 40
      vertex 20 20 40
    endloop
  endfacet
  facet normal 0 0 1
    outer loop
      vertex 2 15 40
      vertex 0 20 40
      vertex 2 5 40
    endloop
  endfacet
  facet normal 0 0 1
    outer loop
      vertex 2.57295 16.7634 40
      vertex 0 20 40
      vertex 2 15 40
    endloop
  endfacet
  facet normal 0 0 1
    outer loop
      vertex 4.07295 17.8532 40
      vertex 0 20 40
      vertex 2.57295 16.7634 40
    endloop
  endfacet
  facet normal 0 0 1
    outer loop
      vertex 5.92705 17.8532 40
      vertex 0 20 40
      vertex 4.07295 17.8532 40
    endloop
  endfacet
  facet normal -0 0 1
    outer loop
      vertex 17.4271 3.23664 40
      vertex 20 0 40
      vertex 18 5 40
    endloop
  endfacet
  facet normal -0 0 1
    outer loop
      vertex 15.9271 2.14683 40
      vertex 20 0 40
      vertex 17.4271 3.23664 40
    endloop
  endfacet
  facet normal -0 0 1
    outer loop
      vertex 14.0729 2.14683 40
      vertex 20 0 40
      vertex 15.9271 2.14683 40
    endloop
  endfacet
  facet normal 0 0 1
    outer loop
      vertex 12.5729 6.76336 40
      vertex 8 5 40
      vertex 12 5 40
    endloop
  endfacet
  facet normal 0 0 1
    outer loop
      vertex 12 5 40
      vertex 8 5 40
      vertex 12.5729 3.23664 40
    endloop
  endfacet
  facet normal 0 0 1
    outer loop
      vertex 7.42705 3.23664 40
      vertex 12.5729 3.23664 40
      vertex 8 5 40
    endloop
  endfacet
  facet normal 0 0 1
    outer loop
      vertex 12.5729 3.23664 40
      vertex 7.42705 3.23664 40
      vertex 14.0729 2.14683 40
    endloop
  endfacet
  facet normal 0 0 1
    outer loop
      vertex 5.92705 2.14683 40
      vertex 14.0729 2.14683 40
      vertex 7.42705 3.23664 40
    endloop
  endfacet
  facet normal 0 0 1
    outer loop
      vertex 14.0729 2.14683 40
      vertex 5.92705 2.14683 40
      vertex 20 0 40
    endloop
  endfacet
  facet normal 0 0 1
    outer loop
      vertex 0 0 40
      vertex 5.92705 2.14683 40
      vertex 4.07295 2.14683 40
    endloop
  endfacet
  facet normal 0 0 1
    outer loop
      vertex 5.92705 2.14683 40
      vertex 0 0 40
      vertex 20 0 40
    endloop
  endfacet
  facet normal 0 0 1
    outer loop
      vertex 2.57295 3.23664 40
      vertex 0 0 40
      vertex 4.07295 2.14683 40
    endloop
  endfacet
  facet normal 0 0 1
    outer loop
      vertex 2 5 40
      vertex 0 0 40
      vertex 2.57295 3.23664 40
    endloop
  endfacet
  facet normal 0 0 1
    outer loop
      vertex 0 0 40
      vertex 2 5 40
      vertex 0 20 40
    endloop
  endfacet
  facet normal 0.809017 0.587786 0
    outer loop
      vertex 6.5 5 45
      vertex 5.46352 6.42658 5
      vertex 5.46352 6.42658 45
    endloop
  endfacet
  facet normal 0.809017 0.587786 0
    outer loop
      vertex 5.46352 6.42658 5
      vertex 6.5 5 45
      vertex 6.5 5 5
    endloop
  endfacet
  facet normal -1 0 0
    outer loop
      vertex 3.78647 4.11832 5
      vertex 3.78647 5.88168 45
      vertex 3.78647 5.88168 5
    endloop
  endfacet
  facet normal -1 -0 0
    outer loop
      vertex 3.78647 5.88168 45
      vertex 3.78647 4.11832 5
      vertex 3.78647 4.11832 45
    endloop
  endfacet
  facet normal -0.309017 0.951057 0
    outer loop
      vertex 5.46352 6.42658 5
      vertex 3.78647 5.88168 45
      vertex 5.46352 6.42658 45
    endloop
  endfacet
  facet normal -0.309017 0.951057 0
    outer loop
      vertex 3.78647 5.88168 45
      vertex 5.46352 6.42658 5
      vertex 3.78647 5.88168 5
    endloop
  endfacet
  facet normal 0 0 -1
    outer loop
      vertex 5.46352 3.57341 5
      vertex 5.46352 6.42658 5
      vertex 6.5 5 5
    endloop
  endfacet
  facet normal 0 0 -1
    outer loop
      vertex 3.78647 4.11832 5
      vertex 5.46352 6.42658 5
      vertex 5.46352 3.57341 5
    endloop
  endfacet
  facet normal 0 0 -1
    outer loop
      vertex 5.46352 6.42658 5
      vertex 3.78647 4.11832 5
      vertex 3.78647 5.88168 5
    endloop
  endfacet
  facet normal 0.809017 -0.587785 0
    outer loop
      vertex 5.46352 3.57341 45
      vertex 6.5 5 5
      vertex 6.5 5 45
    endloop
  endfacet
  facet normal 0.809017 -0.587785 0
    outer loop
      vertex 6.5 5 5
      vertex 5.46352 3.57341 45
      vertex 5.46352 3.57341 5
    endloop
  endfacet
  facet normal -0.309017 -0.951057 0
    outer loop
      vertex 3.78647 4.11832 5
      vertex 5.46352 3.57341 45
      vertex 3.78647 4.11832 45
    endloop
  endfacet
  facet normal -0.309017 -0.951057 -0
    outer loop
      vertex 5.46352 3.57341 45
      vertex 3.78647 4.11832 5
      vertex 5.46352 3.57341 5
    endloop
  endfacet
  facet normal 0.809017 0.587786 0
    outer loop
      vertex 16.5 5 45
      vertex 15.4635 6.42658 5
      vertex 15.4635 6.42658 45
    endloop
  endfacet
  facet normal 0.809017 0.587786 0
    outer loop
      vertex 15.4635 6.42658 5
      vertex 16.5 5 45
      vertex 16.5 5 5
    endloop
  endfacet
  facet normal -1 0 0
    outer loop
      vertex 13.7865 4.11832 5
      vertex 13.7865 5.88168 45
      vertex 13.7865 5.88168 5
    endloop
  endfacet
  facet normal -1 -0 0
    outer loop
      vertex 13.7865 5.88168 45
      vertex 13.7865 4.11832 5
      vertex 13.7865 4.11832 45
    endloop
  endfacet
  facet normal -0.309017 0.951057 0
    outer loop
      vertex 15.4635 6.42658 5
      vertex 13.7865 5.88168 45
      vertex 15.4635 6.42658 45
    endloop
  endfacet
  facet normal -0.309017 0.951057 0
    outer loop
      vertex 13.7865 5.88168 45
      vertex 15.4635 6.42658 5
      vertex 13.7865 5.88168 5
    endloop
  endfacet
  facet normal 0 0 -1
    outer loop
      vertex 15.4635 3.57341 5
      vertex 15.4635 6.42658 5
      vertex 16.5 5 5
    endloop
  endfacet
  facet normal 0 0 -1
    outer loop
      vertex 13.7865 4.11832 5
      vertex 15.4635 6.42658 5
      vertex 15.4635 3.57341 5
    endloop
  endfacet
  facet normal 0 0 -1
    outer loop
      vertex 15.4635 6.42658 5
      vertex 13.7865 4.11832 5
      vertex 13.7865 5.88168 5
    endloop
  endfacet
  facet normal 0.809017 -0.587785 0
    outer loop
      vertex 15.4635 3.57341 45
      vertex 16.5 5 5
      vertex 16.5 5 45
    endloop
  endfacet
  facet normal 0.809017 -0.587785 0
    outer loop
      vertex 16.5 5 5
      vertex 15.4635 3.57341 45
      vertex 15.4635 3.57341 5
    endloop
  endfacet
  facet normal -0.309017 -0.951057 0
    outer loop
      vertex 13.7865 4.11832 5
      vertex 15.4635 3.57341 45
      vertex 13.7865 4.11832 45
    endloop
  endfacet
  facet normal -0.309017 -0.951057 -0
    outer loop
      vertex 15.4635 3.57341 45
      vertex 13.7865 4.11832 5
      vertex 15.4635 3.57341 5
    endloop
  endfacet
  facet normal 0.809017 0.587786 0
    outer loop
      vertex 6.5 15 45
      vertex 5.46352 16.4266 5
      vertex 5.46352 16.4266 45
    endloop
  endfacet
  facet normal 0.809017 0.587786 0
    outer loop
      vertex 5.46352 16.4266 5
      vertex 6.5 15 45
      vertex 6.5 15 5
    endloop
  endfacet
  facet normal -1 0 0
    outer loop
      vertex 3.78647 14.1183 5
      vertex 3.78647 15.8817 45
      vertex 3.78647 15.8817 5
    endloop
  endfacet
  facet normal -1 -0 0
    outer loop
      vertex 3.78647 15.8817 45
      vertex 3.78647 14.1183 5
      vertex 3.78647 14.1183 45
    endloop
  endfacet
  facet normal -0.309017 0.951057 0
    outer loop
      vertex 5.46352 16.4266 5
      vertex 3.78647 15.8817 45
      vertex 5.46352 16.4266 45
    endloop
  endfacet
  facet normal -0.309017 0.951057 0
    outer loop
      vertex 3.78647 15.8817 45
      vertex 5.46352 16.4266 5
      vertex 3.78647 15.8817 5
    endloop
  endfacet
  facet normal -0.309017 -0.951057 0
    outer loop
      vertex 3.78647 14.1183 5
      vertex 5.46352 13.5734 45
      vertex 3.78647 14.1183 45
    endloop
  endfacet
  facet normal -0.309017 -0.951057 -0
    outer loop
      vertex 5.46352 13.5734 45
      vertex 3.78647 14.1183 5
      vertex 5.46352 13.5734 5
    endloop
  endfacet
  facet normal 0 0 -1
    outer loop
      vertex 5.46352 13.5734 5
      vertex 5.46352 16.4266 5
      vertex 6.5 15 5
    endloop
  endfacet
  facet normal 0 0 -1
    outer loop
      vertex 3.78647 14.1183 5
      vertex 5.46352 16.4266 5
      vertex 5.46352 13.5734 5
    endloop
  endfacet
  facet normal 0 0 -1
    outer loop
      vertex 5.46352 16.4266 5
      vertex 3.78647 14.1183 5
      vertex 3.78647 15.8817 5
    endloop
  endfacet
  facet normal 0.809017 -0.587785 0
    outer loop
      vertex 5.46352 13.5734 45
      vertex 6.5 15 5
      vertex 6.5 15 45
    endloop
  endfacet
  facet normal 0.809017 -0.587785 0
    outer loop
      vertex 6.5 15 5
      vertex 5.46352 13.5734 45
      vertex 5.46352 13.5734 5
    endloop
  endfacet
  facet normal 0 0 1
    outer loop
      vertex 5.46352 6.42658 45
      vertex 5.46352 3.57341 45
      vertex 6.5 5 45
    endloop
  endfacet
  facet normal -0 0 1
    outer loop
      vertex 3.78647 5.88168 45
      vertex 5.46352 3.57341 45
      vertex 5.46352 6.42658 45
    endloop
  endfacet
  facet normal 0 0 1
    outer loop
      vertex 5.46352 3.57341 45
      vertex 3.78647 5.88168 45
      vertex 3.78647 4.11832 45
    endloop
  endfacet
  facet normal 0 0 1
    outer loop
      vertex 15.4635 6.42658 45
      vertex 15.4635 3.57341 45
      vertex 16.5 5 45
    endloop
  endfacet
  facet normal -0 0 1
    outer loop
      vertex 13.7865 5.88168 45
      vertex 15.4635 3.57341 45
      vertex 15.4635 6.42658 45
    endloop
  endfacet
  facet normal 0 0 1
    outer loop
      vertex 15.4635 3.57341 45
      vertex 13.7865 5.88168 45
      vertex 13.7865 4.11832 45
    endloop
  endfacet
  facet normal 0 0 1
    outer loop
      vertex 5.46352 16.4266 45
      vertex 5.46352 13.5734 45
      vertex 6.5 15 45
    endloop
  endfacet
  facet normal -0 0 1
    outer loop
      vertex 3.78647 15.8817 45
      vertex 5.46352 13.5734 45
      vertex 5.46352 16.4266 45
    endloop
  endfacet
  facet normal 0 0 1
    outer loop
      vertex 5.46352 13.5734 45
      vertex 3.78647 15.8817 45
      vertex 3.78647 14.1183 45
    endloop
  endfacet
endsolid OpenSCAD_Model
